<svg xmlns="http://www.w3.org/2000/svg" viewBox="0 0 278.89 144.51" preserveAspectRatio="xMidYMin slice"><title>engage logo</title><g style="opacity:0.3"><path d="M179.1,182.76q-2,0-4-.11a72,72,0,0,1-65.85-53.8.75.75,0,0,1,1.45-.38A70.81,70.81,0,0,0,208.2,175a.75.75,0,0,1,.62,1.37A72.34,72.34,0,0,1,179.1,182.76Z" transform="translate(-41.49 -38.25)" style="fill:#a8d6e4"/><path d="M220.06,169.88a.75.75,0,0,1-.43-1.36,70.77,70.77,0,0,0,13-104.34.75.75,0,1,1,1.13-1,72.27,72.27,0,0,1-13.23,106.55A.74.74,0,0,1,220.06,169.88Z" transform="translate(-41.49 -38.25)" style="fill:#a8d6e4"/><path d="M120.69,70a.75.75,0,0,1-.61-1.18A72.28,72.28,0,0,1,225.52,55.12a.75.75,0,0,1-1,1.15A70.78,70.78,0,0,0,121.3,69.69.75.75,0,0,1,120.69,70Z" transform="translate(-41.49 -38.25)" style="fill:#a8d6e4"/><path d="M107.25,118.24a.74.74,0,0,1,.67-.82h0a.74.74,0,0,1,.82.66h0a.74.74,0,0,1-.66.82H108A.76.76,0,0,1,107.25,118.24Zm-.41-7.05h0a.74.74,0,0,1,.74-.76h0a.76.76,0,0,1,.76.74h0a.75.75,0,0,1-.75.76h0A.76.76,0,0,1,106.84,111.19Zm1-6.26a.75.75,0,0,1-.69-.81h0a.76.76,0,0,1,.82-.68h0a.76.76,0,0,1,.68.81h0a.77.77,0,0,1-.75.69h-.06Zm.88-6.94a.74.74,0,0,1-.6-.87h0a.74.74,0,0,1,.87-.6h0a.74.74,0,0,1,.6.87h0a.75.75,0,0,1-.74.61h-.13Zm1.55-6.82a.75.75,0,0,1-.51-.93h0a.74.74,0,0,1,.93-.51h0a.76.76,0,0,1,.51.93h0a.77.77,0,0,1-.73.54h0Zm2.21-6.64a.75.75,0,0,1-.41-1h0a.74.74,0,0,1,1-.42h0a.75.75,0,0,1,.42,1h0a.74.74,0,0,1-.7.47h0A.69.69,0,0,1,112.45,84.53Z" transform="translate(-41.49 -38.25)" style="fill:#a8d6e4"/></g><g style="opacity:0.35"><path d="M176.44,166.64h0a56.21,56.21,0,0,1-52.27-67.85.75.75,0,0,1,1.47.31,54.71,54.71,0,0,0,50.87,66,.75.75,0,0,1,0,1.5Z" transform="translate(-41.49 -38.25)" style="fill:#a8d6e4"/><path d="M188,165.25a.75.75,0,0,1,.61-.87h0a.76.76,0,0,1,.87.61h0a.75.75,0,0,1-.61.87h-.14A.75.75,0,0,1,188,165.25Zm6.82-1.55a.75.75,0,0,1,.49-.94h0a.75.75,0,0,1,.94.49h0a.75.75,0,0,1-.49.94h0a.81.81,0,0,1-.22,0h0A.75.75,0,0,1,194.8,163.7Zm6.57-2.41a.74.74,0,0,1,.37-1h0a.74.74,0,0,1,1,.37h0a.75.75,0,0,1-.37,1h0a.67.67,0,0,1-.31.07h0A.76.76,0,0,1,201.37,161.29Zm6.21-3.22a.76.76,0,0,1,.25-1h0a.74.74,0,0,1,1,.25h0a.74.74,0,0,1-.25,1h0a.76.76,0,0,1-.39.11h0A.76.76,0,0,1,207.58,158.07Zm5.77-4a.75.75,0,0,1,.11-1h0a.76.76,0,0,1,1.06.11h0a.75.75,0,0,1-.12,1.06h0a.74.74,0,0,1-.47.16h0A.72.72,0,0,1,213.35,154.11Zm5.22-4.65a.77.77,0,0,1,0-1.06h0a.74.74,0,0,1,1,0h0a.74.74,0,0,1,0,1.06h0a.74.74,0,0,1-.55.23h0A.77.77,0,0,1,218.57,149.46Z" transform="translate(-41.49 -38.25)" style="fill:#a8d6e4"/><path d="M227.6,137.39a.75.75,0,0,1-.3-1h0a.74.74,0,0,1,1-.3h0a.75.75,0,0,1,.31,1h0a.77.77,0,0,1-.66.4h0A.79.79,0,0,1,227.6,137.39Zm3-6.33a.73.73,0,0,1-.43-1h0a.73.73,0,0,1,1-.43h0a.75.75,0,0,1,.44,1h0a.75.75,0,0,1-.71.48h0A.63.63,0,0,1,230.6,131.06Zm2.17-6.64a.75.75,0,0,1-.54-.91h0a.74.74,0,0,1,.9-.55h0a.75.75,0,0,1,.55.91h0a.75.75,0,0,1-.73.57h0Zm1.33-6.87a.74.74,0,0,1-.65-.83h0a.74.74,0,0,1,.83-.66h0a.76.76,0,0,1,.66.83h0a.76.76,0,0,1-.75.67h-.09Zm-.3-7.72a.75.75,0,0,1,.74-.76h0a.74.74,0,0,1,.76.74h0a.75.75,0,0,1-.74.76h0A.75.75,0,0,1,233.8,109.83Zm-.51-6.88a.75.75,0,0,1,.64-.85h0a.74.74,0,0,1,.84.64h0a.75.75,0,0,1-.63.85H234A.74.74,0,0,1,233.29,102.95Z" transform="translate(-41.49 -38.25)" style="fill:#a8d6e4"/><path d="M230.69,90.92a.75.75,0,0,1-.7-.47,55.19,55.19,0,0,0-4.09-8.25,54.61,54.61,0,0,0-21.21-20,.75.75,0,0,1,.7-1.33,56.38,56.38,0,0,1,26,29.06.75.75,0,0,1-.42,1A.74.74,0,0,1,230.69,90.92Z" transform="translate(-41.49 -38.25)" style="fill:#a8d6e4"/><path d="M128.45,88.7a.74.74,0,0,1-.3-.06.75.75,0,0,1-.38-1A56.21,56.21,0,0,1,194.9,56.58a.75.75,0,0,1-.42,1.44,54.71,54.71,0,0,0-65.35,30.23A.75.75,0,0,1,128.45,88.7Z" transform="translate(-41.49 -38.25)" style="fill:#a8d6e4"/></g><g style="isolation:isolate"><g style="isolation:isolate"><path d="M41.49,84.2H74.24v8.12H50.11v12.14H65v8.12H50.11v13.79H75.82v8.12H41.49Z" transform="translate(-41.49 -38.25)" style="fill:#00abcf"/></g><g style="isolation:isolate"><path d="M116.76,134.48,95.93,102.73c-.65-1-1.44-2.44-2.08-3.73a32.57,32.57,0,0,1,.22,3.73v31.75H85.52V84.2h8.33l20.33,31.24a37.74,37.74,0,0,1,2.08,3.81,36.85,36.85,0,0,1-.22-3.81V84.2h8.55v50.28Z" transform="translate(-41.49 -38.25)" style="fill:#009abb"/></g><g style="isolation:isolate"><path d="M135,109.34c0-12.28,7-26,22-26,9.7,0,14.29,4.88,17.6,10.13L167,97.85c-2.23-3.3-5.17-6.18-9.91-6.18-10.13,0-13.14,9.84-13.14,17.67,0,9,3.81,17.67,13.14,17.67a9.37,9.37,0,0,0,9.7-9.41v-.79h-8.83v-8.12h17.6v7c0,12.78-8,19.68-18.46,19.68C141.54,135.34,135,122.48,135,109.34Z" transform="translate(-41.49 -38.25)" style="fill:#008caa"/></g><g style="isolation:isolate"><path d="M215.3,123.49h-19.9l-4,11h-9.12L201.08,84.2h8.55l18.67,50.28h-9ZM207,100.65a42.19,42.19,0,0,1-1.65-5.1c-.43,1.51-1.15,3.66-1.65,5.1l-5.6,15.08h14.44Z" transform="translate(-41.49 -38.25)" style="fill:#007e98"/></g><g style="isolation:isolate"><path d="M235.27,109.34c0-12.28,7-26,22-26,9.7,0,14.29,4.88,17.6,10.13l-7.69,4.38c-2.23-3.3-5.17-6.18-9.91-6.18-10.13,0-13.14,9.84-13.14,17.67,0,9,3.81,17.67,13.14,17.67a9.37,9.37,0,0,0,9.7-9.41v-.79h-8.83v-8.12h17.6v7c0,12.78-8,19.68-18.46,19.68C241.8,135.34,235.27,122.48,235.27,109.34Z" transform="translate(-41.49 -38.25)" style="fill:#006e84"/></g><g style="isolation:isolate"><path d="M286,84.2H318.8v8.12H294.67v12.14h14.87v8.12H294.67v13.79h25.71v8.12H286Z" transform="translate(-41.49 -38.25)" style="fill:#005b70"/></g></g></svg>
